Motion_kv05_j
version=1
nRows=15
nColumns=43
inDegrees=yes
endheader
time	pelvis_tilt	pelvis_list	pelvis_rotation	pelvis_tx	pelvis_ty	pelvis_tz	hip_flexion_r	hip_adduction_r	hip_rotation_r	knee_angle_r	ankle_angle_r	subtalar_angle_r	mtp_angle_r	hip_flexion_l	hip_adduction_l	hip_rotation_l	knee_angle_l	ankle_angle_l	subtalar_angle_l	mtp_angle_l	lumbar_extension	lumbar_bending	lumbar_rotation	neck_flexion	neck_lateral_bending	neck_rotation	arm_flex_r	arm_add_r	arm_rot_r	elbow_flex_r	pro_sup_r	wrist_flex_r	wrist_dev_r	hand_finger_flex_r	arm_flex_l	arm_add_l	arm_rot_l	elbow_flex_l	pro_sup_l	wrist_flex_l	wrist_dev_l	hand_finger_flex_l
      0.53750000	     -0.11609272	     30.42325127	    -89.24240983	      0.01197774	      1.60558773	      1.08359377	     96.05076377	     -5.31866928	     -8.98110378	    -80.28538712	     14.81719276	      2.95321522	      4.19738785	     92.64137990	     -1.93629452	     -6.61109884	    -71.64241897	     21.63714996	     -1.47566123	    -11.49450246	    -67.70560347	     -0.85317557	     -2.82221690	     54.17408536	      3.90882259	      4.93700345	     45.02173434	    -35.10623864	     11.96650128	     73.98043112	    132.02191255	    -14.01417285	      1.92585423	    -21.52895260	     44.68055160	    -35.26567884	      3.63411665	     74.61597914	    148.81433722	    -44.20120500	      9.81437718	     67.73762720
      0.54000000	     -0.07654418	     30.13294218	    -89.21827075	      0.01218062	      1.60398349	      1.08706769	     95.45868014	     -5.35409493	     -8.82478487	    -79.29187079	     13.82353460	      2.73241186	      4.30923779	     92.00718673	     -1.83613779	     -6.52727932	    -70.58672810	     20.94455193	     -1.42650111	    -11.67635300	    -67.67184699	     -0.81919866	     -2.78669679	     53.82469528	      3.83009825	      4.84433277	     43.91912228	    -35.24754764	     11.08740101	     74.48552563	    131.50955811	    -13.95131400	      1.70728911	    -21.44076955	     43.61566051	    -35.38327725	      3.03767249	     75.31576036	    148.15911246	    -44.30591155	      9.45047799	     68.32582653
      0.54250000	     -0.05902645	     29.76747312	    -89.20548791	      0.01228896	      1.60213573	      1.09056855	     94.81981818	     -5.38842999	     -8.69077053	    -78.37091478	     12.93266109	      2.78844683	      4.27067965	     91.36446478	     -1.78660707	     -6.42463797	    -69.65930938	     20.19031858	     -1.23830336	    -11.79807395	    -67.64057483	     -0.79891021	     -2.74734376	     53.18326207	      3.75954319	      4.78207749	     42.83897916	    -35.39535254	     10.42775329	     74.92887617	    131.24961435	    -14.12962337	      1.67816203	    -21.46826792	     42.51141587	    -35.54602940	      2.54595225	     75.97084789	    147.87098873	    -44.50503591	      9.34579547	     68.54721606
      0.54500000	     -0.01501709	     29.49315742	    -89.15826503	      0.01259020	      1.60063665	      1.09421085	     94.19154203	     -5.43559608	     -8.53353429	    -77.33110938	     11.86560980	      2.33010781	      4.32085560	     90.67114187	     -1.62350373	     -6.34153961	    -68.52764645	     19.48603017	     -1.35179028	    -11.96882971	    -67.66308534	     -0.74715661	     -2.71343440	     53.16321287	      3.64048417	      4.65670261	     41.68792312	    -35.55061853	      9.41341111	     75.49771328	    130.51909971	    -13.87507888	      1.29795081	    -21.25373464	     41.43945520	    -35.59243203	      1.85440092	     76.74231313	    146.96135903	    -44.49617638	      8.89406486	     69.27211934
      0.54750000	      0.01285062	     29.14976999	    -89.14368142	      0.01272780	      1.59886909	      1.09779619	     93.52284930	     -5.46297716	     -8.39913082	    -76.33523220	     10.85113648	      2.16743407	      4.36654706	     89.98965675	     -1.54319277	     -6.24810641	    -67.52657365	     18.69129241	     -1.30991977	    -12.13460525	    -67.65471665	     -0.73627074	     -2.64523979	     52.75107265	      3.54994225	      4.55210815	     40.52716018	    -35.68492116	      8.53056528	     75.96692086	    129.96468134	    -13.79841609	      1.00111220	    -21.12548157	     40.37831822	    -35.65093495	      1.28224812	     77.37390107	    146.23327896	    -44.62605725	      8.44047231	     69.84535669
      0.55000000	      0.04304766	     28.75707079	    -89.13529462	      0.01287345	      1.59681110	      1.10137895	     92.82316092	     -5.49735726	     -8.25776012	    -75.38282075	      9.96094756	      2.19539867	      4.32512035	     89.32977560	     -1.48569174	     -6.15461510	    -66.67252087	     17.89101690	     -1.16022484	    -12.25569819	    -67.63314630	     -0.73217761	     -2.59269599	     52.13083047	      3.47102772	      4.47550350	     39.38270429	    -35.83372957	      7.82894999	     76.37985336	    129.66104013	    -13.93271937	      0.90156658	    -21.11100216	     39.23706392	    -35.73979487	      0.78090727	     78.04032593	    145.86260891	    -44.84384994	      8.25956197	     70.10981624
      0.55250000	      0.07611389	     28.42487162	    -89.12439481	      0.01304644	      1.59517055	      1.10509636	     92.11351944	     -5.51195381	     -8.13552542	    -74.34447784	      8.94189735	      1.82399038	      4.33760457	     88.56329602	     -1.38433737	     -6.06385300	    -65.55340830	     17.11641727	     -1.32149208	    -12.39183876	    -67.68213628	     -0.70993642	     -2.53372645	     52.01156168	      3.36670210	      4.33337826	     38.19709554	    -35.98674407	      6.87453144	     76.94509639	    128.97675766	    -13.69269868	      0.43521113	    -20.84939147	     38.16980823	    -35.79276510	      0.17159130	     78.69120348	    144.95354794	    -44.91905427	      7.75864898	     70.76587645
      0.55500000	      0.10280013	     28.02633014	    -89.12534624	      0.01311928	      1.59294957	      1.10870554	     91.39720783	     -5.53124280	     -7.99177651	    -73.39288042	      8.07464683	      1.88297223	      4.28998175	     87.89979723	     -1.34655508	     -5.97459242	    -64.73186439	     16.29103749	     -1.17528290	    -12.50116540	    -67.63500042	     -0.73395347	     -2.46459776	     51.30910508	      3.31244703	      4.25777870	     37.01901111	    -36.09982989	      6.17238750	     77.30010057	    128.68517755	    -13.81596427	      0.31420312	    -20.81306365	     37.01806653	    -35.83955595	     -0.31959708	     79.31919482	    144.57027077	    -45.15025726	      7.55958846	     71.02099997
      0.55750000	      0.14011316	     27.66170422	    -89.14401521	      0.01327070	      1.59121568	      1.11248864	     90.64052385	     -5.52040633	     -7.87280894	    -72.34853491	      7.06029969	      1.54236723	      4.29165336	     87.09837966	     -1.28267819	     -5.90372472	    -63.64323826	     15.47808998	     -1.39021857	    -12.60577092	    -67.70159065	     -0.73786285	     -2.39425370	     51.17285594	      3.22937437	      4.10977173	     35.81017440	    -36.22673020	      5.19869382	     77.81344325	    128.03295652	    -13.55915945	     -0.21966447	    -20.49970817	     35.94592939	    -35.87319748	     -0.89036463	     79.92600341	    143.62210576	    -45.27605402	      7.01167637	     71.65897326
      0.56000000	      0.16275559	     27.27189270	    -89.16401983	      0.01331040	      1.58873819	      1.11608735	     89.94158756	     -5.51307098	     -7.73550586	    -71.43730558	      6.29208070	      1.63751660	      4.23874904	     86.43418137	     -1.26592714	     -5.80227253	    -62.82585132	     14.69127000	     -1.23773415	    -12.69703006	    -67.60642062	     -0.76576909	     -2.33437991	     50.37557836	      3.21816313	      4.03814877	     34.61159344	    -36.31963847	      4.56076034	     78.16130496	    127.81341081	    -13.71818286	     -0.31779581	    -20.48060868	     34.75259195	    -35.93100765	     -1.36567848	     80.47826488	    143.31184148	    -45.52035993	      6.86372067	     71.85209685
      0.56250000	      0.21610877	     26.88175126	    -89.19517371	      0.01340851	      1.58699674	      1.11996373	     89.11618081	     -5.49620885	     -7.59872524	    -70.33386389	      5.24624476	      1.27266085	      4.24035368	     85.60035175	     -1.21658199	     -5.77465812	    -61.77535894	     13.83953577	     -1.56076774	    -12.76991667	    -67.70407812	     -0.81187459	     -2.25419323	     50.28228612	      3.14460791	      3.89172439	     33.38030839	    -36.40086448	      3.54124841	     78.59236489	    127.17424156	    -13.40272236	     -0.92834722	    -20.09385664	     33.69303618	    -35.92103172	     -1.90232635	     81.11233242	    142.26795588	    -45.69511529	      6.24002127	     72.51567526
      0.56500000	      0.24950578	     26.48804218	    -89.22017930	      0.01344833	      1.58436556	      1.12361137	     88.39992826	     -5.49182753	     -7.44935142	    -69.41047085	      4.49207503	      1.35934150	      4.19767324	     84.94129109	     -1.20739507	     -5.68400654	    -60.99978391	     13.06044787	     -1.44158738	    -12.84733311	    -67.59406107	     -0.85111179	     -2.18975812	     49.47127619	      3.14958322	      3.82054131	     32.14951155	    -36.44070573	      2.85939392	     78.86873992	    126.95159085	    -13.54854847	     -1.03772543	    -20.04899664	     32.49166781	    -35.92350393	     -2.38710755	     81.64676079	    141.90675641	    -45.96418593	      6.05138008	     72.73221384
      0.56750000	      0.31235594	     26.09035992	    -89.27770632	      0.01339438	      1.58244970	      1.12748690	     87.56548527	     -5.43824126	     -7.31080710	    -68.31737718	      3.49954218	      1.01994903	      4.21897639	     84.08114337	     -1.18100288	     -5.66991035	    -59.94599051	     12.21638017	     -1.82721580	    -12.88557475	    -67.66975057	     -0.93383145	     -2.12112600	     49.31623946	      3.11554295	      3.68779562	     30.90308761	    -36.48260480	      1.89773727	     79.27613187	    126.39436211	    -13.25369633	     -1.66251698	    -19.63853646	     31.42143690	    -35.93279715	     -2.87100585	     82.19836787	    140.83744179	    -46.20239507	      5.37750742	     73.40018847
      0.57000000	      0.33473515	     25.72247424	    -89.30473840	      0.01335854	      1.57958243	      1.13113559	     86.87753491	     -5.41468617	     -7.16115432	    -67.42725761	      2.84228154	      1.12462547	      4.17875301	     83.42015158	     -1.17947665	     -5.56712309	    -59.15074910	     11.51109792	     -1.71213235	    -12.95080442	    -67.50173628	     -0.97905902	     -2.05995938	     48.46623648	      3.14718788	      3.62690448	     29.65905508	    -36.48611915	      1.28691055	     79.53941975	    126.22517983	    -13.43165606	     -1.73590696	    -19.61837786	     30.18859300	    -35.93000776	     -3.33934976	     82.67623793	    140.54158883	    -46.47319402	      5.22973881	     73.57815326
      0.57250000	      0.41452559	     25.30126933	    -89.37670406	      0.01328132	      1.57756987	      1.13507022	     85.99394796	     -5.36165801	     -7.00303826	    -66.30374777	      1.85089503	      0.80179760	      4.20045941	     82.54563325	     -1.17040841	     -5.58644783	    -58.14809796	     10.65403625	     -2.18833249	    -12.97018173	    -67.59128974	     -1.08786515	     -1.99901104	     48.32167124	      3.12445334	      3.52096568	     28.42010440	    -36.49401170	      0.35332020	     79.85337313	    125.73008528	    -13.17380559	     -2.32166628	    -19.21125388	     29.11328956	    -35.91649052	     -3.80960712	     83.23330498	    139.47256135	    -46.76027545	      4.53476438	     74.25013628
